<?xml version="1.0" standalone="no"?>
<!DOCTYPE svg PUBLIC "-//W3C//DTD SVG 20010904//EN"
 "http://www.w3.org/TR/2001/REC-SVG-20010904/DTD/svg10.dtd">
<svg version="1.0" xmlns="http://www.w3.org/2000/svg"
 width="512.000000pt" height="512.000000pt" viewBox="0 0 512.000000 512.000000"
 preserveAspectRatio="xMidYMid meet">
<metadata>
Created by potrace 1.16, written by Peter Selinger 2001-2019
</metadata>
<g transform="translate(0.000000,512.000000) scale(0.100000,-0.100000)"
fill="#000000" stroke="none">
<path d="M71 5093 c-18 -9 -42 -31 -52 -47 -23 -37 -25 -116 -5 -154 8 -15
537 -549 1175 -1187 l1161 -1160 -1175 -1175 -1175 -1175 0 -62 c0 -55 3 -66
31 -98 31 -35 32 -35 112 -35 l82 0 1167 1167 1168 1168 1168 -1168 1167
-1167 82 0 c80 0 81 0 112 35 28 32 31 43 31 98 l0 62 -1175 1175 -1175 1175
1161 1160 c638 638 1167 1172 1175 1187 20 38 18 117 -5 154 -33 54 -128 81
-184 53 -12 -6 -547 -536 -1189 -1178 l-1168 -1166 -1167 1166 c-643 642
-1178 1172 -1190 1178 -31 16 -93 13 -132 -6z"/>
</g>
</svg>
