<?xml version="1.0" standalone="no"?>
<!DOCTYPE svg PUBLIC "-//W3C//DTD SVG 20010904//EN"
 "http://www.w3.org/TR/2001/REC-SVG-20010904/DTD/svg10.dtd">
<svg version="1.0" xmlns="http://www.w3.org/2000/svg"
 width="512.000000pt" height="512.000000pt" viewBox="0 0 512.000000 512.000000"
 preserveAspectRatio="xMidYMid meet">

<g transform="translate(0.000000,512.000000) scale(0.100000,-0.100000)"
fill="#000000" stroke="none">
<path d="M994 5101 c-23 -10 -51 -33 -63 -50 -12 -17 -83 -167 -156 -333
l-135 -303 -172 -5 c-185 -5 -198 -9 -242 -60 -74 -88 -46 -214 58 -261 33
-15 66 -19 173 -19 l132 0 5 -42 c4 -24 71 -896 151 -1938 80 -1042 147 -1914
151 -1937 7 -57 41 -104 94 -130 l44 -23 1526 0 1526 0 44 23 c53 26 87 73 94
130 4 23 71 895 151 1937 80 1042 147 1914 151 1938 l5 42 132 0 c107 0 140 4
173 19 104 47 132 173 58 261 -44 51 -57 55 -242 60 l-172 5 -135 303 c-73
166 -144 316 -156 333 -12 17 -40 40 -63 50 -39 18 -100 19 -1566 19 -1466 0
-1527 -1 -1566 -19z m3029 -498 c42 -98 77 -181 77 -185 0 -5 -693 -8 -1540
-8 -847 0 -1540 3 -1540 8 0 4 35 87 77 185 l78 177 1385 0 1385 0 78 -177z
m160 -565 c-6 -62 -283 -3662 -283 -3680 0 -17 -56 -18 -1340 -18 -1284 0
-1340 1 -1340 18 0 18 -277 3618 -283 3680 l-3 32 1626 0 1626 0 -3 -32z"/>
<path d="M1744 3476 c-17 -8 -44 -31 -60 -52 l-29 -37 -3 -1169 c-2 -1148 -2
-1169 18 -1207 48 -95 176 -119 257 -48 67 59 63 -19 63 1245 l0 1149 -23 44
c-41 78 -140 111 -223 75z"/>
<path d="M2500 3483 c-38 -15 -74 -50 -91 -87 -18 -39 -19 -91 -19 -1192 l0
-1151 23 -43 c27 -51 90 -90 147 -90 57 0 120 39 147 90 l23 43 0 1151 c0
1101 -1 1153 -19 1192 -26 58 -72 87 -140 91 -31 1 -63 0 -71 -4z"/>
<path d="M3216 3467 c-25 -14 -48 -39 -63 -66 l-23 -44 0 -1149 c0 -1264 -4
-1186 63 -1245 81 -71 209 -48 257 46 20 40 20 48 18 1209 l-3 1169 -29 37
c-51 68 -145 86 -220 43z"/>
</g>
</svg>
